<svg width="18" height="20" viewBox="0 0 18 20" fill="none" xmlns="http://www.w3.org/2000/svg">
<path d="M17.2168 16.3759C17.5685 16.0731 18 15.602 18 14.8666C18 14.2081 17.7327 13.7707 17.4888 13.4679C17.4607 13.4102 17.4372 13.3574 17.4138 13.3045L17.4044 13.2516C17.3715 13.0834 17.4044 12.9104 17.4982 12.771C17.6576 12.5306 17.7702 12.1798 17.7702 11.5357C17.7702 10.9781 17.5451 10.6513 17.3153 10.4206C17.1089 10.2139 17.0292 9.81975 17.123 9.54098C17.3481 8.87287 17.1324 8.17592 16.7384 7.72411C16.246 7.15693 15.7863 7.08964 14.5623 7.16174C13.7181 7.21461 11.9594 7.49339 10.8009 7.68085C10.3273 7.75775 9.91454 7.82504 9.78791 7.83465C9.19229 7.89714 9.07504 7.83466 9.01876 7.59913C8.99531 7.4982 9.10787 7.26748 9.24857 6.97429C9.43616 6.58496 9.69411 6.05143 9.92861 5.25354C10.4023 3.65777 10.3507 1.92742 9.80198 0.918048C9.54403 0.442201 9.10787 0 8.56853 0C8.02918 0 7.47577 0.115357 7.26003 0.379716C7.10057 0.571978 7.15216 0.937275 6.96925 1.66787C6.82387 2.26388 6.64096 3.15309 6.40646 3.68661C6.05472 4.4845 4.54455 5.85436 3.73319 6.58976C3.54091 6.7628 3.37676 6.9118 3.25951 7.02716C2.85149 7.41649 2.43408 8.04134 2.06357 8.59889C1.81032 8.9738 1.57582 9.32949 1.42105 9.4881C1.08807 9.82937 0.642522 10.012 0.375195 10.012C0.168838 10.012 0 10.1851 0 10.3965V18.063C0 18.2841 0.173528 18.4619 0.389265 18.4619C2.05419 18.4619 2.75769 18.7407 3.50339 19.0291C4.07556 19.255 4.67118 19.4857 5.67952 19.6107C7.19906 19.8029 9.15946 20 10.9604 20C11.9171 20 12.8317 19.9039 13.6149 19.8125C15.0688 19.6395 16.6258 19.2934 17.1417 18.0341C17.334 17.5679 17.2449 17.1882 17.1183 16.895C17.0995 16.8565 17.0855 16.8133 17.0808 16.77C17.0526 16.6114 17.1089 16.4672 17.2168 16.3759Z" fill="#228B22"/>
</svg>
